<svg width="154" height="32" viewBox="0 0 154 32" fill="none" xmlns="http://www.w3.org/2000/svg">
<g clip-path="url(#clip0_78_745)">
<rect width="32" height="32" rx="4" fill="#2F3061"/>
<path d="M16.75 13.75V7H25V13.75H16.75ZM7 16.75V7H15.25V16.75H7ZM16.75 25V15.25H25V25H16.75ZM7 25V18.25H15.25V25H7ZM8.5 15.25H13.75V8.5H8.5V15.25ZM18.25 23.5H23.5V16.75H18.25V23.5ZM18.25 12.25H23.5V8.5H18.25V12.25ZM8.5 23.5H13.75V19.75H8.5V23.5Z" fill="white"/>
<path d="M41.644 12.096C41.42 12.096 41.248 12.032 41.128 11.904C41.008 11.776 40.948 11.6 40.948 11.376V4.164C40.948 3.932 41.012 3.756 41.14 3.636C41.268 3.508 41.444 3.444 41.668 3.444C41.868 3.444 42.024 3.484 42.136 3.564C42.256 3.636 42.364 3.764 42.46 3.948L45.424 9.432H45.04L48.004 3.948C48.1 3.764 48.204 3.636 48.316 3.564C48.428 3.484 48.584 3.444 48.784 3.444C49.008 3.444 49.18 3.508 49.3 3.636C49.42 3.756 49.48 3.932 49.48 4.164V11.376C49.48 11.6 49.42 11.776 49.3 11.904C49.188 12.032 49.016 12.096 48.784 12.096C48.56 12.096 48.388 12.032 48.268 11.904C48.148 11.776 48.088 11.6 48.088 11.376V5.82H48.352L45.832 10.416C45.752 10.552 45.668 10.652 45.58 10.716C45.492 10.78 45.372 10.812 45.22 10.812C45.068 10.812 44.944 10.78 44.848 10.716C44.752 10.644 44.668 10.544 44.596 10.416L42.052 5.808H42.34V11.376C42.34 11.6 42.28 11.776 42.16 11.904C42.048 12.032 41.876 12.096 41.644 12.096ZM52.11 12.096C51.862 12.096 51.67 12.028 51.534 11.892C51.406 11.748 51.342 11.552 51.342 11.304V4.236C51.342 3.98 51.406 3.784 51.534 3.648C51.67 3.512 51.862 3.444 52.11 3.444C52.358 3.444 52.546 3.512 52.674 3.648C52.81 3.784 52.878 3.98 52.878 4.236V11.304C52.878 11.552 52.814 11.748 52.686 11.892C52.558 12.028 52.366 12.096 52.11 12.096ZM58.5207 12.12C57.7047 12.12 56.9887 11.94 56.3727 11.58C55.7647 11.22 55.2927 10.716 54.9567 10.068C54.6207 9.412 54.4527 8.644 54.4527 7.764C54.4527 7.1 54.5487 6.504 54.7407 5.976C54.9327 5.44 55.2047 4.984 55.5567 4.608C55.9167 4.224 56.3447 3.932 56.8407 3.732C57.3447 3.524 57.9047 3.42 58.5207 3.42C59.3447 3.42 60.0607 3.6 60.6687 3.96C61.2767 4.312 61.7487 4.812 62.0847 5.46C62.4207 6.108 62.5887 6.872 62.5887 7.752C62.5887 8.416 62.4927 9.016 62.3007 9.552C62.1087 10.088 61.8327 10.548 61.4727 10.932C61.1207 11.316 60.6927 11.612 60.1887 11.82C59.6927 12.02 59.1367 12.12 58.5207 12.12ZM58.5207 10.8C59.0407 10.8 59.4807 10.68 59.8407 10.44C60.2087 10.2 60.4887 9.852 60.6807 9.396C60.8807 8.94 60.9807 8.396 60.9807 7.764C60.9807 6.804 60.7647 6.06 60.3327 5.532C59.9087 5.004 59.3047 4.74 58.5207 4.74C58.0087 4.74 57.5687 4.86 57.2007 5.1C56.8327 5.332 56.5487 5.676 56.3487 6.132C56.1567 6.58 56.0607 7.124 56.0607 7.764C56.0607 8.716 56.2767 9.46 56.7087 9.996C57.1407 10.532 57.7447 10.8 58.5207 10.8ZM42.32 30C41.968 30 41.696 29.9093 41.504 29.728C41.3227 29.536 41.232 29.264 41.232 28.912V19.808C41.232 19.456 41.3227 19.1893 41.504 19.008C41.696 18.816 41.968 18.72 42.32 18.72H45.424C47.312 18.72 48.768 19.2053 49.792 20.176C50.8267 21.1467 51.344 22.5387 51.344 24.352C51.344 25.2587 51.2107 26.064 50.944 26.768C50.688 27.4613 50.304 28.048 49.792 28.528C49.2907 29.008 48.672 29.376 47.936 29.632C47.2107 29.8773 46.3733 30 45.424 30H42.32ZM43.28 28.304H45.296C45.9573 28.304 46.528 28.224 47.008 28.064C47.4987 27.8933 47.904 27.648 48.224 27.328C48.5547 26.9973 48.8 26.5867 48.96 26.096C49.12 25.5947 49.2 25.0133 49.2 24.352C49.2 23.0293 48.8747 22.0427 48.224 21.392C47.5733 20.7413 46.5973 20.416 45.296 20.416H43.28V28.304ZM54.4435 30.128C54.1128 30.128 53.8568 30.0373 53.6755 29.856C53.5048 29.664 53.4195 29.4027 53.4195 29.072V19.648C53.4195 19.3067 53.5048 19.0453 53.6755 18.864C53.8568 18.6827 54.1128 18.592 54.4435 18.592C54.7742 18.592 55.0248 18.6827 55.1955 18.864C55.3768 19.0453 55.4675 19.3067 55.4675 19.648V29.072C55.4675 29.4027 55.3822 29.664 55.2115 29.856C55.0408 30.0373 54.7848 30.128 54.4435 30.128ZM63.3591 30.16C62.1111 30.16 61.0551 29.9253 60.1911 29.456C59.3378 28.9867 58.6871 28.32 58.2391 27.456C57.7911 26.592 57.5671 25.568 57.5671 24.384C57.5671 23.488 57.6951 22.6827 57.9511 21.968C58.2178 21.2533 58.5965 20.6453 59.0871 20.144C59.5885 19.632 60.1965 19.2427 60.9111 18.976C61.6258 18.6987 62.4365 18.56 63.3431 18.56C63.9405 18.56 64.5378 18.6347 65.1351 18.784C65.7431 18.9227 66.3138 19.1627 66.8471 19.504C67.0285 19.6213 67.1458 19.7653 67.1991 19.936C67.2631 20.1067 67.2738 20.2827 67.2311 20.464C67.1885 20.6347 67.1085 20.784 66.9911 20.912C66.8738 21.04 66.7245 21.12 66.5431 21.152C66.3725 21.184 66.1805 21.1413 65.9671 21.024C65.5618 20.7893 65.1511 20.6187 64.7351 20.512C64.3191 20.4053 63.8551 20.352 63.3431 20.352C62.5538 20.352 61.8871 20.512 61.3431 20.832C60.7991 21.1413 60.3885 21.5947 60.1111 22.192C59.8445 22.7893 59.7111 23.52 59.7111 24.384C59.7111 25.696 60.0258 26.6933 60.6551 27.376C61.2845 28.0587 62.2178 28.4 63.4551 28.4C63.8818 28.4 64.3138 28.3573 64.7511 28.272C65.1885 28.1867 65.6151 28.0693 66.0311 27.92L65.6311 28.832V25.424H63.8711C63.6045 25.424 63.3965 25.3547 63.2471 25.216C63.1085 25.0773 63.0391 24.8907 63.0391 24.656C63.0391 24.4107 63.1085 24.224 63.2471 24.096C63.3965 23.968 63.6045 23.904 63.8711 23.904H66.5111C66.7778 23.904 66.9805 23.9787 67.1191 24.128C67.2685 24.2667 67.3431 24.4693 67.3431 24.736V28.624C67.3431 28.8587 67.2951 29.056 67.1991 29.216C67.1138 29.376 66.9698 29.4933 66.7671 29.568C66.2978 29.7387 65.7591 29.8827 65.1511 30C64.5431 30.1067 63.9458 30.16 63.3591 30.16ZM69.8284 30.128C69.5724 30.128 69.3644 30.0693 69.2044 29.952C69.055 29.8347 68.9644 29.68 68.9324 29.488C68.9004 29.2853 68.9377 29.0613 69.0444 28.816L73.2684 19.456C73.407 19.1467 73.5724 18.928 73.7644 18.8C73.967 18.6613 74.1964 18.592 74.4524 18.592C74.6977 18.592 74.9164 18.6613 75.1084 18.8C75.311 18.928 75.4817 19.1467 75.6204 19.456L79.8604 28.816C79.9777 29.0613 80.0204 29.2853 79.9884 29.488C79.9564 29.6907 79.8657 29.8507 79.7164 29.968C79.567 30.0747 79.3697 30.128 79.1244 30.128C78.8257 30.128 78.591 30.0587 78.4204 29.92C78.2604 29.7707 78.1164 29.5467 77.9884 29.248L76.9484 26.832L77.8124 27.392H71.0604L71.9244 26.832L70.9004 29.248C70.7617 29.5573 70.6177 29.7813 70.4684 29.92C70.319 30.0587 70.1057 30.128 69.8284 30.128ZM74.4204 20.944L72.1804 26.272L71.7644 25.76H77.1084L76.7084 26.272L74.4524 20.944H74.4204ZM89.7104 30.128C89.3797 30.128 89.1237 30.0373 88.9424 29.856C88.7717 29.664 88.6864 29.4027 88.6864 29.072V20.432H85.5664C85.289 20.432 85.0704 20.3573 84.9104 20.208C84.761 20.048 84.6864 19.8347 84.6864 19.568C84.6864 19.2907 84.761 19.0827 84.9104 18.944C85.0704 18.7947 85.289 18.72 85.5664 18.72H93.8544C94.1317 18.72 94.345 18.7947 94.4944 18.944C94.6544 19.0827 94.7344 19.2907 94.7344 19.568C94.7344 19.8347 94.6544 20.048 94.4944 20.208C94.345 20.3573 94.1317 20.432 93.8544 20.432H90.7344V29.072C90.7344 29.4027 90.649 29.664 90.4784 29.856C90.3077 30.0373 90.0517 30.128 89.7104 30.128ZM100.272 30.16C99.1844 30.16 98.2297 29.92 97.4084 29.44C96.5977 28.96 95.9684 28.288 95.5204 27.424C95.0724 26.5493 94.8484 25.5253 94.8484 24.352C94.8484 23.4667 94.9764 22.672 95.2324 21.968C95.4884 21.2533 95.851 20.6453 96.3204 20.144C96.8004 19.632 97.371 19.2427 98.0324 18.976C98.7044 18.6987 99.451 18.56 100.272 18.56C101.371 18.56 102.326 18.8 103.136 19.28C103.947 19.7493 104.576 20.416 105.024 21.28C105.472 22.144 105.696 23.1627 105.696 24.336C105.696 25.2213 105.568 26.0213 105.312 26.736C105.056 27.4507 104.688 28.064 104.208 28.576C103.739 29.088 103.168 29.4827 102.496 29.76C101.835 30.0267 101.094 30.16 100.272 30.16ZM100.272 28.4C100.966 28.4 101.552 28.24 102.032 27.92C102.523 27.6 102.896 27.136 103.152 26.528C103.419 25.92 103.552 25.1947 103.552 24.352C103.552 23.072 103.264 22.08 102.688 21.376C102.123 20.672 101.318 20.32 100.272 20.32C99.5897 20.32 99.003 20.48 98.5124 20.8C98.0217 21.1093 97.643 21.568 97.3764 22.176C97.1204 22.7733 96.9924 23.4987 96.9924 24.352C96.9924 25.6213 97.2804 26.6133 97.8564 27.328C98.4324 28.0427 99.2377 28.4 100.272 28.4ZM112.835 30.16C111.747 30.16 110.792 29.92 109.971 29.44C109.16 28.96 108.531 28.288 108.083 27.424C107.635 26.5493 107.411 25.5253 107.411 24.352C107.411 23.4667 107.539 22.672 107.795 21.968C108.051 21.2533 108.414 20.6453 108.883 20.144C109.363 19.632 109.934 19.2427 110.595 18.976C111.267 18.6987 112.014 18.56 112.835 18.56C113.934 18.56 114.888 18.8 115.699 19.28C116.51 19.7493 117.139 20.416 117.587 21.28C118.035 22.144 118.259 23.1627 118.259 24.336C118.259 25.2213 118.131 26.0213 117.875 26.736C117.619 27.4507 117.251 28.064 116.771 28.576C116.302 29.088 115.731 29.4827 115.059 29.76C114.398 30.0267 113.656 30.16 112.835 30.16ZM112.835 28.4C113.528 28.4 114.115 28.24 114.595 27.92C115.086 27.6 115.459 27.136 115.715 26.528C115.982 25.92 116.115 25.1947 116.115 24.352C116.115 23.072 115.827 22.08 115.251 21.376C114.686 20.672 113.88 20.32 112.835 20.32C112.152 20.32 111.566 20.48 111.075 20.8C110.584 21.1093 110.206 21.568 109.939 22.176C109.683 22.7733 109.555 23.4987 109.555 24.352C109.555 25.6213 109.843 26.6133 110.419 27.328C110.995 28.0427 111.8 28.4 112.835 28.4ZM121.381 30C121.051 30 120.795 29.9093 120.613 29.728C120.432 29.536 120.341 29.2747 120.341 28.944V19.712C120.341 19.3707 120.427 19.1147 120.597 18.944C120.779 18.7627 121.035 18.672 121.365 18.672C121.696 18.672 121.947 18.7627 122.117 18.944C122.299 19.1147 122.389 19.3707 122.389 19.712V28.256H127.029C127.317 28.256 127.536 28.3307 127.685 28.48C127.845 28.6293 127.925 28.8427 127.925 29.12C127.925 29.3973 127.845 29.616 127.685 29.776C127.536 29.9253 127.317 30 127.029 30H121.381ZM130.35 30.128C130.019 30.128 129.763 30.0373 129.582 29.856C129.411 29.664 129.326 29.4027 129.326 29.072V19.632C129.326 19.2907 129.411 19.0347 129.582 18.864C129.763 18.6827 130.019 18.592 130.35 18.592C130.68 18.592 130.931 18.6827 131.102 18.864C131.283 19.0347 131.374 19.2907 131.374 19.632V23.712H131.406L135.998 19.104C136.168 18.9333 136.339 18.8053 136.51 18.72C136.68 18.6347 136.872 18.592 137.086 18.592C137.395 18.592 137.614 18.672 137.742 18.832C137.88 18.992 137.934 19.1787 137.902 19.392C137.88 19.6053 137.779 19.8027 137.598 19.984L132.926 24.608L132.942 23.68L137.822 28.64C138.046 28.8533 138.163 29.0773 138.174 29.312C138.184 29.5467 138.11 29.744 137.95 29.904C137.8 30.0533 137.576 30.128 137.278 30.128C137.022 30.128 136.814 30.0747 136.654 29.968C136.504 29.8613 136.328 29.7067 136.126 29.504L131.406 24.784H131.374V29.072C131.374 29.4027 131.288 29.664 131.118 29.856C130.947 30.0373 130.691 30.128 130.35 30.128ZM140.99 30.128C140.66 30.128 140.404 30.0373 140.222 29.856C140.052 29.664 139.966 29.4027 139.966 29.072V19.648C139.966 19.3067 140.052 19.0453 140.222 18.864C140.404 18.6827 140.66 18.592 140.99 18.592C141.321 18.592 141.572 18.6827 141.742 18.864C141.924 19.0453 142.014 19.3067 142.014 19.648V29.072C142.014 29.4027 141.929 29.664 141.758 29.856C141.588 30.0373 141.332 30.128 140.99 30.128ZM148.226 30.128C147.895 30.128 147.639 30.0373 147.458 29.856C147.287 29.664 147.202 29.4027 147.202 29.072V20.432H144.082C143.805 20.432 143.586 20.3573 143.426 20.208C143.277 20.048 143.202 19.8347 143.202 19.568C143.202 19.2907 143.277 19.0827 143.426 18.944C143.586 18.7947 143.805 18.72 144.082 18.72H152.37C152.647 18.72 152.861 18.7947 153.01 18.944C153.17 19.0827 153.25 19.2907 153.25 19.568C153.25 19.8347 153.17 20.048 153.01 20.208C152.861 20.3573 152.647 20.432 152.37 20.432H149.25V29.072C149.25 29.4027 149.165 29.664 148.994 29.856C148.823 30.0373 148.567 30.128 148.226 30.128Z" fill="#0F172A"/>
</g>
<defs>
<clipPath id="clip0_78_745">
<rect width="154" height="32" fill="white"/>
</clipPath>
</defs>
</svg>